<svg xmlns="http://www.w3.org/2000/svg">
	<symbol viewBox="0 0 24 24" id="file" preserveAspectRatio="xMinYMin">
		<path fill="none" d="M0 0h24v24H0z"/>
		<path fill="currentColor" d="M9 2.003V2h10.998C20.55 2 21 2.455 21 2.992v18.016a.993.993 0 0 1-.993.992H3.993A1 1 0 0 1 3 20.993V8l6-5.997zM5.83 8H9V4.83L5.83 8zM11 4v5a1 1 0 0 1-1 1H5v10h14V4h-8z"/>
	</symbol>
	<symbol viewBox="0 0 24 24" id="pdf" preserveAspectRatio="xMinYMin">
		<path fill="none" d="M0 0h24v24H0z"/>
		<path fill="currentColor" d="M12 16H8V8h4a4 4 0 1 1 0 8zm-2-6v4h2a2 2 0 1 0 0-4h-2zm5-6H5v16h14V8h-4V4zM3 2.992C3 2.444 3.447 2 3.999 2H16l5 5v13.993A1 1 0 0 1 20.007 22H3.993A1 1 0 0 1 3 21.008V2.992z"/>
	</symbol>
	<symbol viewBox="0 0 24 24" id="xlsx" preserveAspectRatio="xMinYMin">
		<path fill="none" d="M0 0h24v24H0z"/>
		<path fill="currentColor" d="M13.2 12l2.8 4h-2.4L12 13.714 10.4 16H8l2.8-4L8 8h2.4l1.6 2.286L13.6 8H15V4H5v16h14V8h-3l-2.8 4zM3 2.992C3 2.444 3.447 2 3.999 2H16l5 5v13.993A1 1 0 0 1 20.007 22H3.993A1 1 0 0 1 3 21.008V2.992z"/>
	</symbol>
	<symbol viewBox="0 0 24 24" id="pptx" preserveAspectRatio="xMinYMin">
		<path fill="none" d="M0 0h24v24H0z"/>
		<path fill="currentColor" d="M3 2.992C3 2.444 3.447 2 3.999 2H16l5 5v13.993A1 1 0 0 1 20.007 22H3.993A1 1 0 0 1 3 21.008V2.992zM5 4v16h14V8h-3v6h-6v2H8V8h7V4H5zm5 6v2h4v-2h-4z"/>
	</symbol>
	<symbol viewBox="0 0 24 24" id="docx" preserveAspectRatio="xMinYMin">
		<path fill="none" d="M0 0h24v24H0z"/>
		<path fill="currentColor" d="M16 8v8h-2l-2-2-2 2H8V8h2v5l2-2 2 2V8h1V4H5v16h14V8h-3zM3 2.992C3 2.444 3.447 2 3.999 2H16l5 5v13.993A1 1 0 0 1 20.007 22H3.993A1 1 0 0 1 3 21.008V2.992z"/>
	</symbol>
	<symbol viewBox="0 0 24 24" id="zip" preserveAspectRatio="xMinYMin">
		<path fill="none" d="M0 0h24v24H0z"/>
		<path fill="currentColor" d="M20 22H4a1 1 0 0 1-1-1V3a1 1 0 0 1 1-1h16a1 1 0 0 1 1 1v18a1 1 0 0 1-1 1zm-1-2V4H5v16h14zm-5-8v5h-4v-3h2v-2h2zm-2-8h2v2h-2V4zm-2 2h2v2h-2V6zm2 2h2v2h-2V8zm-2 2h2v2h-2v-2z"/>
	</symbol>
</svg>
