<svg xmlns="http://www.w3.org/2000/svg">
	<symbol viewBox="0 0 24 24" id="vimeo" preserveAspectRatio="xMinYMin">
		<path fill="none" d="M0 0H24V24H0z"/>
		<path fill="currentColor" d="M1.173 8.301c-.281-.413-.252-.413.328-.922 1.232-1.082 2.394-2.266 3.736-3.212 1.215-.852 2.826-1.402 3.927-.047 1.014 1.249 1.038 3.142 1.295 4.65.257 1.564.503 3.164 1.051 4.66.152.421.443 1.217.968 1.284.678.093 1.368-1.096 1.683-1.54.817-1.18 1.925-2.769 1.785-4.286-.138-1.612-1.878-1.309-2.966-.924.175-1.809 1.858-3.843 3.48-4.53 1.72-.714 4.276-.702 5.14 1.237.923 2.102.093 4.543-.912 6.448-1.097 2.068-2.509 3.982-4.018 5.77-1.331 1.588-2.906 3.33-4.89 4.089-2.267.864-3.61-.82-4.382-2.77-.843-2.123-1.262-4.506-1.87-6.717-.256-.934-.56-1.997-1.167-2.768-.792-.995-1.692-.06-2.474.477-.269-.267-.491-.607-.714-.899z"/>
	</symbol>
	<symbol viewBox="0 0 24 24" id="twitter" preserveAspectRatio="xMinYMin">
		<path fill="none" d="M0 0h24v24H0z"/>
		<path fill="currentColor" d="M22.162 5.656a8.384 8.384 0 0 1-2.402.658A4.196 4.196 0 0 0 21.6 4c-.82.488-1.719.83-2.656 1.015a4.182 4.182 0 0 0-7.126 3.814 11.874 11.874 0 0 1-8.62-4.37 4.168 4.168 0 0 0-.566 2.103c0 1.45.738 2.731 1.86 3.481a4.168 4.168 0 0 1-1.894-.523v.052a4.185 4.185 0 0 0 3.355 4.101 4.21 4.21 0 0 1-1.89.072A4.185 4.185 0 0 0 7.97 16.65a8.394 8.394 0 0 1-6.191 1.732 11.83 11.83 0 0 0 6.41 1.88c7.693 0 11.9-6.373 11.9-11.9 0-.18-.005-.362-.013-.54a8.496 8.496 0 0 0 2.087-2.165z"/>
	</symbol>
	<symbol viewBox="0 0 24 24" id="telegram" preserveAspectRatio="xMinYMin">
		<path fill="none" d="M0 0h24v24H0z"/>
		<path fill="currentColor" d="M12 22C6.477 22 2 17.523 2 12S6.477 2 12 2s10 4.477 10 10-4.477 10-10 10zm-3.11-8.83l.013-.007.87 2.87c.112.311.266.367.453.341.188-.025.287-.126.41-.244l1.188-1.148 2.55 1.888c.466.257.801.124.917-.432l1.657-7.822c.183-.728-.137-1.02-.702-.788l-9.733 3.76c-.664.266-.66.638-.12.803l2.497.78z"/>
	</symbol>
	<symbol viewBox="0 0 24 24" id="instagram" preserveAspectRatio="xMinYMin">
		<path fill="none" d="M0 0h24v24H0z"/>
		<path fill="currentColor" d="M12 2c2.717 0 3.056.01 4.122.06 1.065.05 1.79.217 2.428.465.66.254 1.216.598 1.772 1.153a4.908 4.908 0 0 1 1.153 1.772c.247.637.415 1.363.465 2.428.047 1.066.06 1.405.06 4.122 0 2.717-.01 3.056-.06 4.122-.05 1.065-.218 1.79-.465 2.428a4.883 4.883 0 0 1-1.153 1.772 4.915 4.915 0 0 1-1.772 1.153c-.637.247-1.363.415-2.428.465-1.066.047-1.405.06-4.122.06-2.717 0-3.056-.01-4.122-.06-1.065-.05-1.79-.218-2.428-.465a4.89 4.89 0 0 1-1.772-1.153 4.904 4.904 0 0 1-1.153-1.772c-.248-.637-.415-1.363-.465-2.428C2.013 15.056 2 14.717 2 12c0-2.717.01-3.056.06-4.122.05-1.066.217-1.79.465-2.428a4.88 4.88 0 0 1 1.153-1.772A4.897 4.897 0 0 1 5.45 2.525c.638-.248 1.362-.415 2.428-.465C8.944 2.013 9.283 2 12 2zm0 5a5 5 0 1 0 0 10 5 5 0 0 0 0-10zm6.5-.25a1.25 1.25 0 0 0-2.5 0 1.25 1.25 0 0 0 2.5 0zM12 9a3 3 0 1 1 0 6 3 3 0 0 1 0-6z"/>
	</symbol>
	<symbol viewBox="0 0 24 24" id="facebook">
		<path fill="none" d="M0 0h24v24H0z"/>
		<path fill="currentColor" d="M15.402 21v-6.966h2.333l.349-2.708h-2.682V9.598c0-.784.218-1.319 1.342-1.319h1.434V5.857a19.19 19.19 0 0 0-2.09-.107c-2.067 0-3.482 1.262-3.482 3.58v1.996h-2.338v2.708h2.338V21H4a1 1 0 0 1-1-1V4a1 1 0 0 1 1-1h16a1 1 0 0 1 1 1v16a1 1 0 0 1-1 1h-4.598z"/>
	</symbol>
</svg>
