<svg xmlns="http://www.w3.org/2000/svg" xml:space="preserve" viewBox="0 0 758.893 552.293">
  <path d="M1726.92 1209.52h-14.72c-20.4 0-33.37 9.46-40.41 28.86l-13.87 38.12h-166.64l-13.67-38.16c-6.92-19.32-20.13-28.82-40.53-28.82h-14.19c-26.07 0-37.61 16.75-28.01 40.9l125.92 316.62c7.64 19.19 20.76 28.13 40.99 28.13h25.17c20.23 0 33.33-8.95 40.99-28.12l126.46-316.56c9.67-24.19-1.77-40.97-27.49-40.97zm-152.54 293.95-60.37-164.89h121.06zM1882.59 1209.53c-22.88 0-35.47 12.59-35.47 35.48v314.69c0 22.88 12.59 35.47 35.47 35.47h18.98c19.33 0 31.83-6.92 42.75-23.76l150.89-229.76v218.05c0 22.88 12.59 35.47 35.47 35.47h13.13c22.88 0 35.47-12.59 35.47-35.47v-314.69c0-22.89-12.59-35.48-35.47-35.48h-18.27c-19.33 0-32.34 7.99-42.75 23.76l-151.43 230.65V1245c0-22.89-12.59-35.48-35.48-35.48h-13.29v.01M2306.27 1245v314.7c0 22.87 12.59 35.47 35.48 35.47h74.57c156.07 0 216.81-66.21 216.81-193 0-125.02-60.74-192.65-216.81-192.65h-74.57c-22.89 0-35.48 12.59-35.48 35.48zm241.9 157.88c0 79.78-31.3 118.15-129.19 118.15h-28.64v-236.66h29.34c97.19 0 128.49 38.19 128.49 118.51M2700.79 1401.81c0 137.43 86.47 197.01 183.41 197.01 95.34 0 182.7-59.58 182.7-197.01 0-140.09-86.83-197.25-183.76-197.25-96.95 0-182.35 57.16-182.35 197.25zm282.04.18c0 77.46-39.45 122.41-98.98 122.41-61.14 0-100.23-44.59-100.23-122.41 0-79.94 38.02-123.3 99.52-123.3 60.6 0 99.69 43.36 99.69 123.3M3414.71 1209.52h-15.79c-19.86 0-31.61 9.05-41.51 25.89L3301.1 1333c-5.87-.27-11.92-.42-18.17-.42h-44.43V1245c0-22.89-12.59-35.48-35.48-35.48h-13.82c-22.89 0-35.47 12.59-35.47 35.48v314.7c0 22.87 12.58 35.47 35.47 35.47h95.33c124.97 0 168.69-41.7 168.69-129.6 0-55.65-22.83-96.29-73.5-117.14l59.27-96.56c16.8-27.37 9.43-42.35-24.28-42.35zm-46.27 250.37c0 47.82-26.67 64.33-86.04 64.33h-44.44v-128.11h44.44c59.37 0 86.04 15.61 86.04 63.78M3817.4 1209.52h-15.79c-19.86 0-31.61 9.05-41.51 25.89l-56.31 97.59c-5.87-.27-11.92-.42-18.16-.42h-44.44V1245c0-22.89-12.59-35.48-35.47-35.48h-13.83c-22.88 0-35.47 12.59-35.47 35.48v314.7c0 22.87 12.59 35.47 35.47 35.47h95.34c124.97 0 168.68-41.7 168.68-129.6 0-55.65-22.82-96.29-73.5-117.14l59.27-96.56c16.8-27.37 9.43-42.35-24.28-42.35zm-46.27 250.37c0 47.82-26.67 64.33-86.04 64.33h-44.43v-128.11h44.43c59.37 0 86.04 15.61 86.04 63.78M4269.3 1209.52h-14.73c-20.39 0-33.37 9.46-40.41 28.86l-13.87 38.12h-166.63l-13.68-38.16c-6.92-19.32-20.13-28.82-40.52-28.82h-14.19c-26.08 0-37.62 16.75-28.02 40.9l125.92 316.62c7.63 19.19 20.76 28.13 40.99 28.13h25.18c20.22 0 33.33-8.95 40.98-28.12l126.47-316.56c9.66-24.19-1.77-40.97-27.49-40.97zm-152.55 293.95-60.37-164.89h121.06zM1489.05 901.859h-36.98v-60.82c0-6.16-3.48-9.648-9.65-9.648h-9.11c-6.16 0-9.64 3.488-9.64 9.648v168.271c0 6.16 3.48 9.64 9.64 9.64h69.41c36.17 0 57.07-27.321 57.07-59.212 0-27.867-16.08-51.179-43.95-56.539 1.88-20.359 14.48-50.91 34.84-50.91 5.36 0 9.91 1.07 13.66 3.211 5.9 2.691 9.91 2.148 12.86-3.469l1.34-2.422c2.41-5.359 2.15-10.179-2.94-13.398-8.05-5.359-17.42-7.77-27.07-7.77-44.21 0-57.61 50.911-59.48 73.418zm8.03 22.512c20.64 0 33.24 14.738 33.24 35.367 0 21.16-12.87 35.903-33.24 35.903h-45.01v-71.27h45.01M1592.26 898.109c0 39.121 30.55 70.469 72.34 70.469 33.76 0 64.57-20.098 68.32-62.969.81-6.429-2.95-9.91-9.37-9.91h-103.97c-.8-24.918 19.84-43.14 49.04-43.14 13.13 0 24.92 3.48 36.44 11.25 5.09 3.222 9.38 2.953 13.66-1.34l1.88-2.137c4.29-4.551 4.29-10.184-1.88-15.281-15.53-12.59-33.49-16.61-50.37-16.61-47.16 0-76.09 31.348-76.09 69.668zm113.34 17.95c-6.97 23.851-25.72 28.933-40.46 28.933-15.55 0-34.83-6.164-43.14-28.933h83.6M1753.32 854.441c-3.21 6.161 0 10.45 6.44 12.047l5.62 1.614c5.37 1.339 8.58-1.071 12.06-5.633 5.37-6.688 14.47-10.981 24.92-10.981 12.86 0 22.51 7.5 22.51 17.684 0 8.578-7.24 13.129-16.61 16.34l-17.95 6.16c-20.64 6.18-33.5 17.687-33.5 36.707 0 23.051 18.22 40.199 45.02 40.199 16.34 0 32.15-5.629 41-21.969 3.47-6.168.26-10.988-6.18-12.328l-5.08-1.07c-5.63-1.602-8.84.809-12.59 5.617-4.56 5.363-10.45 6.973-16.35 6.973-11.79 0-19.3-7.231-19.3-16.61 0-8.57 7.78-13.132 15.55-15.543l19.29-6.429c25.72-8.039 32.69-23.848 32.69-38.321 0-25.718-22.51-40.457-48.77-40.457-20.63 0-39.66 8.848-48.77 26M1871.26 898.109c0 39.121 30.55 70.469 72.35 70.469 33.76 0 64.57-20.098 68.32-62.969.81-6.429-2.95-9.91-9.38-9.91h-103.96c-.8-24.918 19.83-43.14 49.03-43.14 13.14 0 24.92 3.48 36.45 11.25 5.08 3.222 9.37 2.953 13.66-1.34l1.87-2.137c4.29-4.551 4.29-10.184-1.87-15.281-15.54-12.59-33.5-16.61-50.37-16.61-47.16 0-76.1 31.348-76.1 69.668zm113.34 17.95c-6.97 23.851-25.72 28.933-40.46 28.933-15.54 0-34.83-6.164-43.14-28.933h83.6M2038.49 841.039V955.98c0 6.161 3.75 9.649 9.91 9.649h8.04c6.16 0 9.65-3.488 9.65-9.649v-20.359c4.55 21.43 19.82 32.957 35.9 32.957l5.89-.269c5.63-.809 6.44-5.36 6.44-10.719v-7.77c0-6.699-2.69-9.379-7.24-8.3-2.41.531-4.82.8-7.23.8-9.65 0-33.76-4.828-33.76-59.75v-41.531c0-6.16-3.49-9.648-9.65-9.648h-8.04c-6.16 0-9.91 3.488-9.91 9.648M2180.53 839.16l-44.75 115.481c-2.41 6.699.27 10.988 7.5 10.988h8.84c5.63 0 9.11-2.41 11.26-7.758l35.64-96.211 35.63 96.211c2.15 5.348 5.63 7.758 11.25 7.758h8.85c7.24 0 9.91-4.289 7.5-10.988L2217.5 839.16c-2.14-5.09-5.9-7.769-11.52-7.769h-13.94c-5.62 0-9.37 2.679-11.51 7.769M2275.41 898.648c0 38.582 26.53 69.93 66.46 69.93 17.95 0 35.36-6.156 47.96-24.109v11.511c0 6.161 3.75 9.649 9.91 9.649h8.04c6.16 0 9.64-3.488 9.64-9.649V841.039c0-6.16-3.48-9.648-9.64-9.648h-8.04c-6.16 0-9.91 3.488-9.91 9.648v11.52c-12.6-17.957-30.01-24.118-47.96-24.118-39.93 0-66.46 31.618-66.46 70.207zm114.95 0c-.27 26.524-18.22 46.082-44.74 46.082-27.07 0-42.61-21.16-42.61-46.082 0-25.187 15.54-46.089 42.61-46.089 26.52 0 44.47 19.562 44.74 46.089M2518.76 898.648c0 38.582 26.54 69.93 66.46 69.93 17.95 0 35.37-6.156 47.96-24.109v71.001c0 6.17 3.75 9.64 9.92 9.64h8.04c6.16 0 9.63-3.47 9.63-9.64V841.039c0-6.16-3.47-9.648-9.63-9.648h-8.04c-6.17 0-9.92 3.488-9.92 9.648v11.52c-12.59-17.957-30.01-24.118-47.96-24.118-39.92 0-66.46 31.618-66.46 70.207zm114.95 0c-.26 26.524-18.22 46.082-44.74 46.082-27.06 0-42.6-21.16-42.6-46.082 0-25.187 15.54-46.089 42.6-46.089 26.52 0 44.48 19.562 44.74 46.089M2691.38 898.109c0 39.121 30.55 70.469 72.34 70.469 33.76 0 64.57-20.098 68.32-62.969.81-6.429-2.95-9.91-9.37-9.91H2718.7c-.8-24.918 19.84-43.14 49.04-43.14 13.13 0 24.92 3.48 36.44 11.25 5.09 3.222 9.38 2.953 13.66-1.34l1.88-2.137c4.29-4.551 4.29-10.184-1.88-15.281-15.53-12.59-33.49-16.61-50.37-16.61-47.15 0-76.09 31.348-76.09 69.668zm113.34 17.95c-6.97 23.851-25.72 28.933-40.46 28.933-15.55 0-34.83-6.164-43.14-28.933h83.6M2932.31 841.039v174.431c0 6.17 3.75 9.64 9.91 9.64h8.04c6.16 0 9.65-3.47 9.65-9.64V841.039c0-6.16-3.49-9.648-9.65-9.648h-8.04c-6.16 0-9.91 3.488-9.91 9.648M2991.54 898.648c0 38.582 26.52 69.93 66.47 69.93 17.95 0 35.35-6.156 47.95-24.109v11.511c0 6.161 3.75 9.649 9.92 9.649h8.02c6.18 0 9.65-3.488 9.65-9.649V841.039c0-6.16-3.47-9.648-9.65-9.648h-8.02c-6.17 0-9.92 3.488-9.92 9.648v11.52c-12.6-17.957-30-24.118-47.95-24.118-39.95 0-66.47 31.618-66.47 70.207zm114.96 0c-.27 26.524-18.22 46.082-44.74 46.082-27.07 0-42.62-21.16-42.62-46.082 0-25.187 15.55-46.089 42.62-46.089 26.52 0 44.47 19.562 44.74 46.089M3277.77 852.559v-11.52c0-6.16-3.49-9.648-9.65-9.648h-8.04c-6.16 0-9.91 3.488-9.91 9.648v174.431c0 6.17 3.75 9.64 9.91 9.64h8.04c6.16 0 9.65-3.47 9.65-9.64v-71.001c12.58 17.953 30.28 24.109 48.22 24.109 39.93 0 66.45-31.348 66.45-69.93 0-38.589-26.52-70.207-66.45-70.207-17.94 0-35.64 6.161-48.22 24.118zm87.07 46.089c0 24.922-15.53 46.082-42.87 46.082-26.25 0-44.47-19.558-44.75-46.082.28-26.527 18.5-46.089 44.75-46.089 27.34 0 42.87 20.902 42.87 46.089M3419.28 1008.24c0 10.45 7.77 18.75 18.49 18.75 10.98 0 19.03-8.3 19.03-18.75 0-10.189-8.31-18.228-19.03-18.228s-18.49 8.039-18.49 18.228zm4.82-167.201V955.98c0 6.161 3.75 9.649 9.92 9.649h8.03c6.17 0 9.65-3.488 9.65-9.649V841.039c0-6.16-3.48-9.648-9.65-9.648h-8.03c-6.17 0-9.92 3.488-9.92 9.648M3483.08 898.648c0 38.582 31.61 69.93 70.73 69.93 39.39 0 71.29-31.617 71.29-69.93 0-38.859-31.9-70.207-71.29-70.207-39.12 0-70.73 31.09-70.73 70.207zm114.4-.277c0 25.457-19.28 46.098-43.67 46.098-23.85 0-43.4-20.641-43.4-46.098 0-25.449 19.55-45.812 43.4-45.812 24.39 0 43.67 20.363 43.67 45.812M3646.56 854.441c-3.22 6.161 0 10.45 6.43 12.047l5.62 1.614c5.37 1.339 8.58-1.071 12.07-5.633 5.35-6.688 14.45-10.981 24.9-10.981 12.88 0 22.52 7.5 22.52 17.684 0 8.578-7.24 13.129-16.62 16.34l-17.95 6.16c-20.62 6.18-33.49 17.687-33.49 36.707 0 23.051 18.22 40.199 45.02 40.199 16.34 0 32.15-5.629 40.99-21.969 3.48-6.168.28-10.988-6.17-12.328l-5.08-1.07c-5.62-1.602-8.84.809-12.59 5.617-4.56 5.363-10.45 6.973-16.35 6.973-11.78 0-19.3-7.231-19.3-16.61 0-8.57 7.77-13.132 15.55-15.543l19.29-6.429c25.73-8.039 32.7-23.848 32.7-38.321 0-25.718-22.52-40.457-48.77-40.457-20.64 0-39.67 8.848-48.77 26M3783.24 841.039v103.152h-15.55c-3.47 0-5.35 2.149-5.35 5.629V960c0 3.488 1.88 5.629 5.35 5.629h15.55v9.91c0 43.151 23.57 52.261 44.75 52.261 26.25 0 40.99-14.48 40.99-34.038 0-1.602-.27-3.481-.54-4.551-.53-1.871-2.68-2.949-4.81-2.949h-13.14c-2.95 0-5.63 1.609-5.63 4.828v1.871c0 6.699-6.95 11.249-15.27 11.249-12.33 0-18.22-9.37-18.22-24.108v-14.473h29.21c3.48 0 5.36-2.141 5.36-5.629v-10.18c0-3.48-1.88-5.629-5.36-5.629h-29.21V841.039c0-6.16-3.48-9.648-9.65-9.648h-8.83c-6.17 0-9.65 3.488-9.65 9.648M3863.65 898.109c0 39.121 30.55 70.469 72.34 70.469 33.77 0 64.57-20.098 68.32-62.969.82-6.429-2.93-9.91-9.37-9.91h-103.97c-.8-24.918 19.85-43.14 49.05-43.14 13.12 0 24.92 3.48 36.44 11.25 5.08 3.222 9.38 2.953 13.66-1.34l1.87-2.137c4.3-4.551 4.3-10.184-1.87-15.281-15.53-12.59-33.5-16.61-50.38-16.61-47.14 0-76.09 31.348-76.09 69.668zm113.34 17.95c-6.97 23.851-25.72 28.933-40.45 28.933-15.55 0-34.84-6.164-43.14-28.933h83.59M4038.92 841.039V955.98c0 6.161 3.75 9.649 9.93 9.649h8.02c6.18 0 9.65-3.488 9.65-9.649v-20.359c4.55 21.43 19.83 32.957 35.92 32.957l5.88-.269c5.62-.809 6.44-5.36 6.44-10.719v-7.77c0-6.699-2.69-9.379-7.24-8.3-2.4.531-4.83.8-7.23.8-9.65 0-33.77-4.828-33.77-59.75v-41.531c0-6.16-3.47-9.648-9.65-9.648h-8.02c-6.18 0-9.93 3.488-9.93 9.648M4126.03 898.648c0 38.582 26.53 69.93 66.47 69.93 17.95 0 35.35-6.156 47.95-24.109v11.511c0 6.161 3.75 9.649 9.92 9.649h8.03c6.17 0 9.65-3.488 9.65-9.649V841.039c0-6.16-3.48-9.648-9.65-9.648h-8.03c-6.17 0-9.92 3.488-9.92 9.648v11.52c-12.6-17.957-30-24.118-47.95-24.118-39.94 0-66.47 31.618-66.47 70.207zm114.96 0c-.27 26.524-18.22 46.082-44.74 46.082-27.07 0-42.62-21.16-42.62-46.082 0-25.187 15.55-46.089 42.62-46.089 26.52 0 44.47 19.562 44.74 46.089" style="fill:#000;fill-opacity:1;fill-rule:nonzero;stroke:none" transform="matrix(.13333 0 0 -.13333 0 552.293)"/>
  <path d="M2441.65 3087c-1.56 3.02-5.86 3.09-7.51.11l-254.02-457.8c-4.92-8.85-2.5-22.19 4.75-26.28l57.98-47.95c3.8-3.15 9.33-3.1 22.38 13.52l110.45 94.91c-2.31-6.23-1.53 8.56-7.68 17.24l-32.81 39.49s28.85 147.18 82.82 229.59c16.68 23.02 32.22 40.37 43.28 51.69 9.63 9.85 11.82 24.73 5.49 36.96l-25.13 48.52M2856.83 3121.82l123.21-142.5c2.66-3.08 6.49-3.34 9.91-2.68 4.26.81 8.06 3.19 10.99 6.41l28.12 31.06c.91 3.39.22 7.01-1.9 9.81l-101.93 135.51c-2.9 3.86-7.91 5.47-12.51 4.02l-50.68-23.3c-7.83-2.46-10.57-12.13-5.21-18.33M3326.54 2809.02c10.42 5.08 11.13 19.65 1.22 25.7-27.01 16.48-80.84 44.47-91.96 49.98-48.43 23.93-132.12 73.03-132.12 73.03l-64.72-16.11c-9.85-1.77-14.27-12.86-7.58-19.12 29.96-28.02 148.01-114.63 186.26-142.52 7.75-5.65 18.35-7.11 28.24-3.87 8.96 2.93 62.27 23.97 80.66 32.91M2665.79 2929.83l-36.54 54.73c8.2 20.42 38.91 90.15 93.94 139.29 58.85 52.53 128.79 82.67 151.95 91.78 4.35 1.7 6.44 6.62 4.73 10.96l-32.75 82.32c-2.13 5.38-9.26 6.45-12.9 1.95l-18.9-23.45c-19.67-24.39-49.35-38.57-80.69-38.57h-8.84c-7.31 0-14.3-2.82-19.53-7.91-32.9-31.97-155.36-152.8-189.48-213.01-13.83-17.6-8.73-44.38-1.12-65.3 7.26-19.95 3.05-42.24-11.28-57.92-44.39-48.62-97.5-123.28-115.74-202.18l49.36-62.31 76.3 81.72 95.22-25.02 115.1 63.39c8.34 3.09 8.51 25.15 4.25 40.43-6.02 40.09-63.08 129.1-63.08 129.1M2699.27 2413.12c-.28 4.12-4.53 6.72-8.32 5.14-13.67-5.65-41.09-15.96-49.64-11.43a43.194 43.194 0 0 0-22.95 36.79c-1.4 44.31-4.33 138.58-4.34 155.54l-127.73-78.02a43.088 43.088 0 0 0-21.6-6.32l-114.82 1.23c-10.18-.68-6.96-12.07-1.04-16.03l128.87-110.96c5.6-4.82 12.04-8.59 19-11.1l228.46-82.31c6.73-.9 10.65 7.38 5.67 12l-19.06 17.73c-1.57 1.46-3.39 3.35-5.23 5.33-6.57 7.09-9.83 16.6-9.12 26.23 1.22 16.24 2.81 42.18 1.85 56.18" style="fill:#fcdf4c;fill-opacity:1;fill-rule:nonzero;stroke:none" transform="matrix(.13333 0 0 -.13333 0 552.293)"/>
  <path d="m2660.14 2593.07 4.19-126.56c.38-11.57 11.96-19.36 22.82-15.36l124.88 45.98c8.53 3.15 17.96 2.7 26.15-1.21l27.45-13.13c13.41-6.41 28.93 3.37 28.92 18.24l-.17 250.22c-.01 6.06-6.76 9.65-11.79 6.27l-211.15-142.31c-7.32-4.93-11.58-13.31-11.3-22.14M2936.7 2798.83l.82-160.8 55.75-89.4a13.02 13.02 0 0 1 11.53-6.1l42.23 1.6 175.48-119.95c12.01-10.7 30.67-8.11 39.44 5.38 6.41 9.82 11.34 19.52 8.21 22.47-5.26 4.94-155.83 109.47-214.85 164.51a170.03 170.03 0 0 0-34.71 45.52l-73.1 139.4c-2.73 5.36-10.83 3.38-10.8-2.63" style="fill:#fcdf4c;fill-opacity:1;fill-rule:nonzero;stroke:none" transform="matrix(.13333 0 0 -.13333 0 552.293)"/>
  <path d="m3840.73 2544.75-36.5 59.17-38.92 40.57 2.44 4.67a25.655 25.655 0 0 1-1.78 26.69l-47.8 67.52a9.004 9.004 0 0 1-12.9 1.91l-11.57-8.98c-5.39-4.21-13.32-1.34-14.8 5.34l-23.88 108.21c-1.87 8.45-12.08 11.83-18.62 6.17l-99.92-86.37a46.509 46.509 0 0 1-7.58-8.4l-49.6-70.72c-6.47-9.21-1.12-22.01 9.96-23.91l28.01-4.79c2.91-.5 5.61-1.83 7.79-3.82l96.4-88.57 25.91-104.32-132.54 63.44a44.977 44.977 0 0 1-18.3 4.38l-70 1.7a66.375 66.375 0 0 0-17.9 5.9l-120.5 65.39c-9.67 3.79-18.45-7.2-12.6-15.8l44.36-65.23 24.78-40.35a70.745 70.745 0 0 1 19.85-21.03l131.79-67.35 141.86-11.17c9.93-.78 19.45-4.32 27.49-10.22l44.6-32.77c7-5.13 16.96-1.49 18.97 6.95l11.83 49.32-43.19 128.97-89.03 93.99 38.03 43.15 44.81 7.54 111.44-198.26a31.977 31.977 0 0 1 27.23-16.31l76.13-1.58c8.77-.18 13.36 10.36 7.25 16.64l-46.43 40.83a139.27 139.27 0 0 0-26.57 31.5" style="fill:#e25f52;fill-opacity:1;fill-rule:nonzero;stroke:none" transform="matrix(.13333 0 0 -.13333 0 552.293)"/>
  <path d="m2532.39 2173.97 86.79-108.5a13.23 13.23 0 0 1 13.04-4.68l373.25 78.03c2.45.53 4.73 1.73 6.52 3.49l134.52 131.32c5.32 5.19 5.31 13.76-.01 18.95 0 0-74.2 66.92-79.28 64.23l-93.52 9.3-.75.07c-7.22.72-14.5-1.2-20.26-5.62a50.427 50.427 0 0 1-8.34-8.12c-2.14-2.6-4.17-4.52-5.66-3.94l-120.11 7.81c-4.19 2.17-8.83-2.03-7.03-6.39 7.13-17.25 18.9-46.9 19.84-56.48 1.28-13.02-7.13-25-19.8-28.26l-271.87-70.06c-9.49-2.2-13.42-13.54-7.33-21.15" style="fill:#fcdf4c;fill-opacity:1;fill-rule:nonzero;stroke:none" transform="matrix(.13333 0 0 -.13333 0 552.293)"/>
  <path d="M2042.87 2630.17c-1.39 2.54-5.26 1.09-4.6-1.72 5.32-22.8 22.43-65.29 77.34-103.04 59.64-40.98 73.96-82.79 77.37-98.95.86-4.05 4.37-6.97 8.5-6.99l61.79-.26c6.51-.02 12.94 2.07 17.74 6.44 3.31 3.02 5.45 6.81 2.65 10.76l-38.1 53.63c-.21.29-.47.51-.78.7-4.95 2.87-50.93 29.25-116.71 59.59-48.39 22.32-74.04 59.32-85.2 79.84M2150.72 2211.71c0 12.29-7.02 23.51-18.08 28.89l-20.2 9.84a40.575 40.575 0 0 0-20.57 23.06l18.03 78.37a31.86 31.86 0 0 1-3.04 22.39l-65.03 151.11c-3.1 5.58-11.35 4.76-13.3-1.3l-27.24-85.14c-1.57-4.94-2.13-10.23-.99-15.27 21.23-94.41-310.52-312.04-337.03-329.25a5.055 5.055 0 0 1-2.13-3.07l-8.19-35.17c-.91-3.91 2.89-7.25 6.65-5.85l217.03 81.38c18.25-11.46 32.3-28.43 40.47-48.38 8.38-20.5 35.61-41.48 57.65-55.83 18.24-11.88 39.51-18.23 61.27-18.53l100.75-1.41c7.14-.11 13.01 5.64 13.04 12.78l.91 191.38M1947.79 2441.87c-5.58-11.52-14.2-21.28-24.9-28.29l-219.74-143.65-248.55-224.06-69.06 20.18s-11.23 17.89-12.69 27.09c-.78 5.03-2.59 50.93-4.04 90.74a179.851 179.851 0 0 1-39.83 106.47l-96.53 119.5c-3.4 4.21.49 10.31 5.74 8.99 46.79-11.82 180.9-44.76 230.21-46.73 93.49-3.75 144.68 19.52 165.9 32.74 12.61 7.86 25.52 15.24 38.92 21.67l244.79 117.67c4.05 1.95 7.95 4.16 11.68 6.65l75.49 50.37c4 2.66 9.05-1.44 7.26-5.9 0 0-49.19-121.55-64.65-153.44M2294.5 2370.83l41.32-136.82c2.77-9.16 14.11-12.37 21.25-5.99l71.46 63.69c12.41 11.04 10.52 30.95-3.72 39.49l-117.65 70.57c-3.13 1.86-7.14.03-7.79-3.55l-4.87-27.39M1260.33 2163.46 1228 2363.61c-.83 5.05-7.66 6.04-9.89 1.44l-149.1-244.7a43.233 43.233 0 0 0-21.66-17.93l-216.319-81.29c-3.551-1.33-3.422-6.38.188-7.54l162.355-52.08a23.503 23.503 0 0 1 18.546 1.8l203.26 112.26c5.13 2.83 9.19 7.26 11.57 12.62l33.38 75.27" style="fill:#3b75ba;fill-opacity:1;fill-rule:nonzero;stroke:none" transform="matrix(.13333 0 0 -.13333 0 552.293)"/>
  <path d="m3910 2171.15-18.86 60.05 35.66 61.07c5.54 9.5-2.96 21.02-13.68 18.52l-258.45-60.56-146.77 48.92-146.77 95.14-116.77-150.56-85.34-81.71 234.38-33.99c5.83-.85 11.31-3.38 15.74-7.28l39.74-29.61c8.24-7.24 111.41-9.41 111.41-9.41 8.52-1 17.13.76 24.58 5.02l84.12 48.11a40.598 40.598 0 0 0 37.43 1.49l134.43-63.24c7.88-3.71 17.29-.82 21.71 6.67 15.07 25.45 30.79 52.11 45.88 77.77 2.43 4.13 2.98 9.05 1.56 13.6M4827.32 2150.53l-79.73 42.07a28.056 28.056 0 0 1-12.84 3.26l-144.29 1.61-199.37 205.61c-9.93 7.52-24.14.17-23.73-12.28l4.07-111.19c.45-12.2-7.34-23.18-18.97-26.81l-102.44-31.87a47.988 47.988 0 0 0-44.37 8.42l-128.08 175.11c-12.28 9.86-30.05 8.79-41.06-2.44l-60.1-61.36c-4.63-4.72-4.79-12.23-.36-17.15l17.15-21.38c.13.19.21.3.21.3l214.13-306.28c16.1-16.2 38-25.3 60.84-25.24 9.81.02 18.59 6.04 22.17 15.17l67.85 173.51c8.57 22.6 30.3 37.48 54.48 37.35l55.74-.51a53.283 53.283 0 0 0 33.84-12.37l43.61-128.15c8-11.57 21.13-18.53 35.2-18.63l123.52-72.99c7.4-.03 158.49 143.03 158.49 143.03a73.77 73.77 0 0 1-35.96 43.21M3389.7 2050.17l-263.24 47.13c-7.6 1.36-15.37 1.4-23 .1l-76.08-12.93-88.27-38.32a57.555 57.555 0 0 0-14.91-4.19l-344.58-48.04c-14.1-2.28-12.43-23.06 1.84-23.06l351.32-1.57c2.95 0 5.9.25 8.79.79l183.45 33.43 145.38-32.46 122.06 59.03c9.29 4.5 7.39 18.26-2.76 20.09" style="fill:#e25f52;fill-opacity:1;fill-rule:nonzero;stroke:none" transform="matrix(.13333 0 0 -.13333 0 552.293)"/>
</svg>