<svg xmlns="http://www.w3.org/2000/svg" xml:space="preserve" viewBox="0 0 719.307 361.773">
  <path d="M2293.21 1806.62c-1.56 3.02-5.86 3.08-7.51.11l-254.02-457.8c-4.92-8.86-2.5-22.2 4.75-26.29l57.98-47.94c3.8-3.16 9.33-3.11 22.38 13.52l110.45 94.91c-2.31-6.23-1.53 8.56-7.68 17.24l-32.81 39.48s28.85 147.19 82.82 229.59c16.68 23.03 32.22 40.37 43.28 51.7 9.63 9.84 11.82 24.73 5.49 36.96l-25.13 48.52M2708.39 1841.44l123.21-142.51c2.66-3.07 6.49-3.34 9.91-2.67 4.26.81 8.06 3.18 10.99 6.4l28.12 31.07c.91 3.39.22 7-1.9 9.8l-101.93 135.51c-2.9 3.86-7.91 5.48-12.51 4.02l-50.68-23.29c-7.83-2.47-10.57-12.13-5.21-18.33M3178.1 1528.64c10.42 5.07 11.13 19.65 1.22 25.69-27.01 16.48-80.84 44.48-91.96 49.98-48.43 23.94-132.12 73.04-132.12 73.04l-64.72-16.11c-9.85-1.78-14.27-12.87-7.58-19.13 29.96-28.01 148.01-114.62 186.26-142.52 7.75-5.64 18.35-7.1 28.24-3.87 8.96 2.93 62.27 23.98 80.66 32.92M2517.35 1649.44l-36.54 54.73c8.2 20.43 38.91 90.15 93.94 139.29 58.85 52.54 128.79 82.67 151.95 91.78 4.35 1.71 6.44 6.62 4.73 10.96l-32.75 82.33c-2.13 5.37-9.26 6.44-12.9 1.94l-18.9-23.44a103.687 103.687 0 0 0-80.69-38.58h-8.84c-7.31 0-14.3-2.81-19.53-7.91-32.91-31.97-155.36-152.8-189.48-213.01-13.83-17.59-8.73-44.38-1.12-65.3 7.26-19.95 3.05-42.23-11.28-57.92-44.39-48.62-97.5-123.28-115.74-202.17l49.36-62.31 76.3 81.72 95.22-25.02 115.1 63.39c8.34 3.08 8.51 25.14 4.25 40.43-6.02 40.09-63.08 129.09-63.08 129.09M2550.83 1132.74c-.28 4.12-4.53 6.72-8.32 5.13-13.67-5.64-41.09-15.95-49.64-11.42a43.194 43.194 0 0 0-22.95 36.79c-1.4 44.31-4.33 138.58-4.34 155.53l-127.73-78.02a43.077 43.077 0 0 0-21.6-6.31l-114.82 1.23c-10.18-.69-6.96-12.07-1.04-16.04l128.87-110.95c5.6-4.83 12.04-8.59 19-11.11l228.46-82.31c6.73-.89 10.65 7.39 5.67 12.01l-19.06 17.72c-1.57 1.47-3.39 3.35-5.23 5.33-6.57 7.09-9.84 16.6-9.12 26.24 1.22 16.24 2.81 42.18 1.85 56.18" style="fill:#fcdf4c;fill-opacity:1;fill-rule:nonzero;stroke:none" transform="matrix(.13333 0 0 -.13333 0 361.773)"/>
  <path d="m2511.7 1312.69 4.19-126.57c.38-11.56 11.96-19.35 22.82-15.36l124.88 45.99a33.6 33.6 0 0 0 26.15-1.22l27.45-13.13c13.41-6.41 28.93 3.37 28.92 18.24l-.17 250.23c-.01 6.05-6.76 9.65-11.79 6.26L2523 1334.83c-7.32-4.93-11.58-13.31-11.3-22.14M2788.26 1518.45l.83-160.81 55.74-89.39c2.48-3.95 6.86-6.29 11.53-6.11l42.23 1.61 175.48-119.95c12.01-10.7 30.67-8.11 39.44 5.37 6.41 9.83 11.34 19.53 8.21 22.47-5.26 4.95-155.83 109.48-214.85 164.51a170.344 170.344 0 0 0-34.71 45.52l-73.1 139.4c-2.73 5.36-10.83 3.39-10.8-2.62" style="fill:#fcdf4c;fill-opacity:1;fill-rule:nonzero;stroke:none" transform="matrix(.13333 0 0 -.13333 0 361.773)"/>
  <path d="m3692.29 1264.37-36.5 59.17-38.92 40.57 2.44 4.67a25.656 25.656 0 0 1-1.78 26.69l-47.8 67.52c-2.97 4.2-8.83 5.07-12.9 1.91l-11.57-8.99c-5.39-4.2-13.32-1.33-14.8 5.34l-23.88 108.22c-1.87 8.45-12.08 11.83-18.62 6.17l-99.92-86.37a46.144 46.144 0 0 1-7.57-8.41l-49.61-70.72c-6.47-9.21-1.12-22 9.96-23.91l28.01-4.78c2.91-.5 5.61-1.83 7.79-3.82l96.4-88.58 25.91-104.32-132.54 63.45a45.14 45.14 0 0 1-18.3 4.38l-70 1.7a66.703 66.703 0 0 0-17.9 5.89l-120.5 65.39c-9.67 3.79-18.44-7.19-12.6-15.8l44.36-65.22 24.78-40.35a70.745 70.745 0 0 1 19.85-21.03l131.79-67.35 141.86-11.18a53.47 53.47 0 0 0 27.49-10.22l44.6-32.77c7-5.13 16.96-1.48 18.97 6.96l11.83 49.32-43.19 128.97-89.03 93.98 38.03 43.16 44.81 7.53 111.45-198.25a31.948 31.948 0 0 1 27.22-16.31l76.13-1.59c8.77-.18 13.36 10.36 7.25 16.65l-46.43 40.83a139.053 139.053 0 0 0-26.57 31.5" style="fill:#e25f52;fill-opacity:1;fill-rule:nonzero;stroke:none" transform="matrix(.13333 0 0 -.13333 0 361.773)"/>
  <path d="m2383.95 893.582 86.79-108.492a13.22 13.22 0 0 1 13.04-4.692l373.25 78.043c2.45.52 4.73 1.731 6.52 3.489l134.52 131.308c5.32 5.203 5.31 13.772-.01 18.962 0 0-74.2 66.91-79.28 64.23l-93.52 9.3-.75.07c-7.22.71-14.5-1.2-20.26-5.62a50.83 50.83 0 0 1-8.34-8.12c-2.14-2.6-4.17-4.53-5.66-3.94l-120.11 7.81c-4.2 2.16-8.83-2.04-7.03-6.4 7.13-17.25 18.9-46.89 19.84-56.47 1.28-13.02-7.13-25.001-19.8-28.271l-271.87-70.059c-9.49-2.191-13.42-13.539-7.33-21.148" style="fill:#fcdf4c;fill-opacity:1;fill-rule:nonzero;stroke:none" transform="matrix(.13333 0 0 -.13333 0 361.773)"/>
  <path d="M1894.43 1349.79c-1.39 2.54-5.26 1.08-4.6-1.72 5.32-22.8 22.43-65.29 77.34-103.04 59.64-40.99 73.96-82.79 77.37-98.95.86-4.05 4.37-6.98 8.5-7l61.79-.26c6.51-.02 12.94 2.07 17.74 6.45 3.32 3.01 5.45 6.81 2.65 10.76l-38.1 53.62c-.21.3-.47.52-.78.71-4.95 2.86-50.93 29.25-116.71 59.59-48.39 22.32-74.04 59.32-85.2 79.84M2002.28 931.332c0 12.289-7.02 23.5-18.08 28.887l-20.2 9.832a40.632 40.632 0 0 0-20.57 23.058l18.03 78.371c1.76 7.59.67 15.55-3.04 22.4l-65.03 151.11c-3.1 5.57-11.35 4.76-13.3-1.31l-27.24-85.14c-1.57-4.93-2.13-10.22-.99-15.26 21.23-94.41-310.52-312.05-337.03-329.26a5.01 5.01 0 0 1-2.13-3.059l-8.19-35.18c-.91-3.902 2.89-7.242 6.65-5.84l217.03 81.379c18.25-11.461 32.3-28.441 40.47-48.39 8.38-20.489 35.61-41.469 57.65-55.828 18.24-11.883 39.51-18.223 61.27-18.52l100.75-1.41c7.14-.113 13.01 5.637 13.04 12.777l.91 191.383M1799.35 1161.49c-5.58-11.52-14.2-21.28-24.9-28.29l-219.74-143.661-248.55-224.059-69.06 20.192s-11.23 17.879-12.69 27.078c-.78 5.039-2.59 50.941-4.04 90.738a179.85 179.85 0 0 1-39.83 106.482l-96.53 119.5c-3.4 4.2.49 10.31 5.74 8.99 46.79-11.83 180.9-44.77 230.21-46.74 93.49-3.74 144.68 19.53 165.9 32.75 12.61 7.85 25.52 15.24 38.92 21.67l244.79 117.67c4.05 1.94 7.95 4.16 11.68 6.64l75.49 50.38c4 2.65 9.05-1.44 7.26-5.9 0 0-49.19-121.56-64.65-153.44M2146.06 1090.45l41.32-136.829c2.77-9.16 14.11-12.359 21.25-5.992l71.46 63.701c12.41 11.04 10.52 30.95-3.72 39.48l-117.65 70.57c-3.13 1.87-7.14.04-7.79-3.54l-4.87-27.39M1111.89 883.07l-32.33 200.16c-.83 5.05-7.66 6.04-9.89 1.43L920.566 839.969a43.163 43.163 0 0 0-21.66-17.93L682.59 740.75c-3.547-1.328-3.418-6.391.187-7.551l162.356-52.07a23.488 23.488 0 0 1 18.551 1.801l203.256 112.25a26.878 26.878 0 0 1 11.57 12.629l33.38 75.261" style="fill:#3b75ba;fill-opacity:1;fill-rule:nonzero;stroke:none" transform="matrix(.13333 0 0 -.13333 0 361.773)"/>
  <path d="m3761.56 890.77-18.86 60.05 35.66 61.06c5.54 9.51-2.96 21.03-13.68 18.53l-258.45-60.558-146.78 48.908-146.76 95.14-116.77-150.56-85.34-81.699 234.38-34a30.416 30.416 0 0 0 15.74-7.27l39.74-29.609c8.24-7.242 111.41-9.422 111.41-9.422 8.52-1 17.13.769 24.58 5.031l84.12 48.109a40.597 40.597 0 0 0 37.43 1.481l134.43-63.231c7.88-3.718 17.29-.832 21.71 6.661 15.07 25.461 30.79 52.109 45.88 77.781a16.844 16.844 0 0 1 1.56 13.598M4678.88 870.141l-79.73 42.07a28.19 28.19 0 0 1-12.84 3.269l-144.29 1.61-199.37 205.61c-9.93 7.52-24.13.17-23.73-12.29l4.07-111.18c.45-12.199-7.34-23.179-18.97-26.808l-102.44-31.883a48.044 48.044 0 0 0-44.37 8.422l-128.08 175.109c-12.28 9.87-30.05 8.8-41.06-2.44l-60.1-61.35a12.523 12.523 0 0 1-.36-17.15l17.16-21.39c.12.19.2.31.2.31l214.13-306.28a85.408 85.408 0 0 1 60.84-25.239c9.81.02 18.59 6.039 22.17 15.168l67.85 173.512c8.57 22.59 30.3 37.48 54.48 37.34l55.74-.5a53.349 53.349 0 0 0 33.83-12.371l43.62-128.149a43.208 43.208 0 0 1 35.2-18.64l123.52-72.981c7.4-.031 158.49 143.031 158.49 143.031a73.782 73.782 0 0 1-35.96 43.2M3241.26 769.781l-263.24 47.141a67.086 67.086 0 0 1-23 .098l-76.08-12.93-88.27-38.32a57.716 57.716 0 0 0-14.91-4.192l-344.58-48.039c-14.1-2.277-12.43-23.059 1.84-23.059l351.32-1.57c2.95-.012 5.9.25 8.79.781l183.45 33.438 145.38-32.469 122.06 59.039c9.29 4.5 7.39 18.262-2.76 20.082" style="fill:#e25f52;fill-opacity:1;fill-rule:nonzero;stroke:none" transform="matrix(.13333 0 0 -.13333 0 361.773)"/>
</svg>